<svg xmlns="http://www.w3.org/2000/svg" viewBox="0 0 500 500">
    <style>
        .primary { fill: var(--primary); }
        .secondary { fill: var(--secondary); }
        .accent { fill: var(--accent); }
    </style>
    <circle class="accent" cx="250" cy="250" r="200"/>
    <path class="primary" d="M250 150c-27.6 0-50 22.4-50 50s22.4 50 50 50 50-22.4 50-50-22.4-50-50-50zm0 80c-16.5 0-30-13.5-30-30s13.5-30 30-30 30 13.5 30 30-13.5 30-30 30z"/>
    <path class="secondary" d="M250 300c-55.2 0-100-44.8-100-100s44.8-100 100-100 100 44.8 100 100-44.8 100-100 100zm0-180c-44.1 0-80 35.9-80 80s35.9 80 80 80 80-35.9 80-80-35.9-80-80-80z"/>
    <path class="primary" d="M250 350c-82.8 0-150-67.2-150-150s67.2-150 150-150 150 67.2 150 150-67.2 150-150 150zm0-280c-71.7 0-130 58.3-130 130s58.3 130 130 130 130-58.3 130-130-58.3-130-130-130z"/>
</svg> 